<?xml version="1.0" ?><!DOCTYPE svg  PUBLIC '-//W3C//DTD SVG 1.1//EN'  'http://www.w3.org/Graphics/SVG/1.1/DTD/svg11.dtd'><svg height="512px" style="enable-background:new 0 0 512 512;" version="1.1" viewBox="0 0 512 512" width="512px" xml:space="preserve" xmlns="http://www.w3.org/2000/svg" xmlns:xlink="http://www.w3.org/1999/xlink"><g id="_x32_03_x2C__cloud_x2C__share_x2C__computing_x2C__network"><path d="M414.434,405.112c-11.252,0-20.666,8.018-22.83,18.64h-38.215c-0.002-0.005-0.004-0.009-0.004-0.015   c-0.123-0.599-0.275-1.188-0.443-1.77c-0.025-0.093-0.051-0.186-0.078-0.277c-0.168-0.556-0.357-1.103-0.564-1.64   c-0.039-0.102-0.08-0.201-0.119-0.302c-0.217-0.538-0.449-1.067-0.705-1.584c-0.035-0.074-0.074-0.146-0.111-0.218   c-0.27-0.535-0.555-1.062-0.865-1.572c-0.004-0.007-0.008-0.015-0.012-0.021c-0.313-0.515-0.648-1.012-0.998-1.498   c-0.049-0.069-0.098-0.14-0.146-0.208c-0.34-0.462-0.697-0.91-1.07-1.345c-0.066-0.077-0.131-0.154-0.199-0.23   c-0.379-0.432-0.77-0.851-1.18-1.254c-0.057-0.055-0.113-0.107-0.17-0.162c-0.434-0.418-0.877-0.823-1.342-1.207   c0-0.001-0.002-0.001-0.002-0.001c-0.463-0.383-0.943-0.742-1.436-1.089c-0.068-0.049-0.135-0.099-0.205-0.146   c-0.473-0.326-0.957-0.632-1.455-0.923c-0.088-0.052-0.178-0.104-0.268-0.154c-0.502-0.285-1.012-0.553-1.535-0.801   c-0.076-0.035-0.15-0.067-0.227-0.102c-0.551-0.253-1.109-0.492-1.684-0.702c-0.002-0.001-0.004-0.002-0.004-0.003   c-0.572-0.209-1.156-0.39-1.746-0.556c-0.086-0.023-0.172-0.05-0.258-0.073c-0.566-0.15-1.141-0.279-1.723-0.388   c-0.107-0.02-0.215-0.039-0.322-0.058c-0.586-0.101-1.178-0.182-1.777-0.238c-0.09-0.008-0.182-0.014-0.271-0.021   c-0.631-0.051-1.268-0.085-1.912-0.085s-1.281,0.034-1.912,0.085c-0.09,0.007-0.182,0.013-0.271,0.021   c-0.6,0.057-1.191,0.138-1.775,0.238c-0.109,0.019-0.217,0.038-0.324,0.058c-0.582,0.108-1.156,0.237-1.723,0.388   c-0.086,0.023-0.172,0.05-0.258,0.073c-0.59,0.166-1.174,0.347-1.746,0.557l-0.002,0.001c-0.574,0.211-1.135,0.449-1.686,0.703   c-0.076,0.034-0.15,0.066-0.227,0.102c-0.521,0.248-1.033,0.516-1.535,0.801c-0.09,0.051-0.18,0.103-0.268,0.154   c-0.498,0.291-0.982,0.597-1.455,0.923c-0.07,0.047-0.137,0.097-0.205,0.146c-0.492,0.347-0.973,0.706-1.436,1.089   c0,0-0.002,0-0.002,0.001c-0.463,0.384-0.908,0.789-1.342,1.207c-0.057,0.055-0.113,0.107-0.17,0.162   c-0.41,0.403-0.801,0.822-1.18,1.254c-0.068,0.076-0.133,0.153-0.199,0.23c-0.373,0.435-0.729,0.883-1.07,1.345   c-0.049,0.068-0.098,0.139-0.146,0.208c-0.35,0.486-0.686,0.983-0.998,1.498c-0.004,0.006-0.008,0.013-0.012,0.019   c-0.309,0.511-0.596,1.038-0.865,1.574c-0.037,0.072-0.076,0.144-0.111,0.218c-0.254,0.517-0.488,1.046-0.705,1.584   c-0.039,0.101-0.08,0.2-0.119,0.302c-0.207,0.537-0.396,1.084-0.564,1.64c-0.027,0.092-0.053,0.185-0.078,0.277   c-0.168,0.582-0.32,1.171-0.443,1.77c0,0.006-0.002,0.01-0.004,0.015h-28.426V321.236h107.1   c39.244-1.288,69.973-34.505,69.973-75.653c0-41.072-33.285-74.487-74.197-74.487c-0.211,0-0.418,0.008-0.625,0.016   c-0.211,0.007-0.422,0.014-0.635,0.018c-1.381,0.026-2.707-0.569-3.611-1.618s-1.295-2.446-1.064-3.812   c0.846-5.047,1.275-10.125,1.275-15.093c0-49.802-40.361-90.317-89.971-90.317c-34.454,0-65.365,19.28-80.667,50.317   c-1.106,2.244-3.789,3.213-6.075,2.196c-7.488-3.335-15.448-5.025-23.658-5.025c-32.216,0-58.426,26.313-58.426,58.658   c0,0.295,0.011,0.588,0.021,0.88l0.018,0.587c0.055,2.257-1.518,4.229-3.73,4.679c-34.415,6.994-59.394,37.696-59.394,73.002   c0,35.083,21.797,66.783,51.917,75.653h115.835v65.237h-19.107c0-0.003-0.001-0.006-0.002-0.009   c-0.124-0.604-0.277-1.2-0.447-1.787c-0.025-0.086-0.048-0.173-0.074-0.259c-0.169-0.562-0.36-1.111-0.57-1.653   c-0.038-0.097-0.075-0.192-0.114-0.288c-0.218-0.542-0.453-1.075-0.708-1.596c-0.034-0.069-0.071-0.137-0.105-0.206   c-0.273-0.541-0.562-1.073-0.875-1.591c-0.001-0.002-0.002-0.004-0.004-0.006c-0.314-0.518-0.652-1.017-1.003-1.507   c-0.048-0.066-0.093-0.133-0.142-0.199c-0.341-0.464-0.7-0.913-1.074-1.352c-0.064-0.074-0.129-0.149-0.194-0.223   c-0.38-0.435-0.774-0.855-1.185-1.26c-0.054-0.053-0.11-0.104-0.164-0.156c-0.868-0.838-1.799-1.607-2.787-2.304   c-0.067-0.047-0.132-0.096-0.199-0.142c-0.474-0.326-0.961-0.634-1.46-0.925c-0.087-0.052-0.175-0.103-0.263-0.152   c-0.503-0.285-1.016-0.554-1.541-0.803c-0.073-0.034-0.147-0.066-0.221-0.1c-0.553-0.254-1.115-0.494-1.69-0.705   c-0.572-0.21-1.156-0.392-1.747-0.557c-0.085-0.023-0.17-0.05-0.256-0.073c-0.566-0.15-1.142-0.279-1.724-0.388   c-0.107-0.02-0.215-0.039-0.323-0.058c-0.585-0.101-1.177-0.182-1.776-0.238c-0.091-0.008-0.182-0.013-0.272-0.021   c-0.631-0.051-1.267-0.085-1.912-0.085c-0.644,0-1.28,0.034-1.911,0.085c-0.091,0.008-0.182,0.013-0.272,0.021   c-0.6,0.057-1.191,0.138-1.776,0.238c-0.107,0.019-0.215,0.038-0.322,0.058c-0.582,0.108-1.158,0.237-1.724,0.388   c-0.086,0.023-0.17,0.05-0.256,0.073c-0.591,0.165-1.176,0.347-1.747,0.557c-0.576,0.211-1.137,0.451-1.69,0.705   c-0.074,0.033-0.148,0.065-0.221,0.1c-0.525,0.249-1.038,0.518-1.541,0.803c-0.088,0.05-0.176,0.101-0.263,0.152   c-0.498,0.291-0.986,0.599-1.459,0.925c-0.067,0.046-0.132,0.095-0.199,0.142c-0.988,0.696-1.919,1.466-2.787,2.304   c-0.054,0.053-0.11,0.104-0.164,0.156c-0.411,0.404-0.805,0.825-1.185,1.26c-0.065,0.073-0.13,0.148-0.194,0.223   c-0.374,0.438-0.733,0.888-1.074,1.352c-0.048,0.066-0.094,0.133-0.141,0.199c-0.352,0.49-0.689,0.989-1.003,1.507   c-0.001,0.002-0.002,0.004-0.004,0.006c-0.313,0.518-0.603,1.05-0.875,1.591c-0.035,0.069-0.071,0.137-0.105,0.206   c-0.256,0.521-0.491,1.054-0.708,1.596c-0.039,0.096-0.077,0.191-0.114,0.288c-0.209,0.542-0.401,1.092-0.57,1.653   c-0.026,0.086-0.049,0.173-0.074,0.259c-0.17,0.587-0.323,1.183-0.447,1.787c0,0.003-0.001,0.006-0.002,0.009h-38.215   c-2.165-10.622-11.579-18.64-22.83-18.64c-12.847,0-23.299,10.452-23.299,23.3c0,12.847,10.452,23.299,23.299,23.299   c11.251,0,20.666-8.018,22.83-18.64h38.216c2.165,10.622,11.579,18.64,22.83,18.64c11.252,0,20.666-8.018,22.831-18.64h23.768   c2.573,0,4.66-2.086,4.66-4.659v-69.897h37.278v107.175c0,2.574,2.086,4.66,4.659,4.66h33.088   c2.166,10.622,11.578,18.64,22.83,18.64s20.666-8.018,22.83-18.64h38.217c2.164,10.622,11.578,18.64,22.83,18.64   c12.846,0,23.299-10.452,23.299-23.3C437.732,415.564,427.279,405.112,414.434,405.112z M279.797,90.819   c1.15-2.299,3.945-3.23,6.246-2.08c0.602,0.301,14.9,7.541,28.145,21.988c17.771,19.386,25.021,42.492,20.965,66.821   c-0.379,2.279-2.354,3.896-4.59,3.896c-0.256,0-0.514-0.021-0.771-0.064c-2.539-0.423-4.254-2.824-3.83-5.362   c3.602-21.608-2.604-41.383-18.443-58.774c-12.08-13.264-25.514-20.104-25.648-20.171   C279.572,95.917,278.643,93.118,279.797,90.819z M97.567,251.34H78.928v-18.639h18.639V251.34z M125.526,251.34h-18.639v-18.639   h18.639V251.34z M153.485,251.34h-18.639v-18.639h18.639V251.34z" id="XMLID_12591_"/></g><g id="Layer_1"/></svg>