<?xml version="1.0" ?><!DOCTYPE svg  PUBLIC '-//W3C//DTD SVG 1.1//EN'  'http://www.w3.org/Graphics/SVG/1.1/DTD/svg11.dtd'><svg height="512px" style="enable-background:new 0 0 512 512;" version="1.1" viewBox="0 0 512 512" width="512px" xml:space="preserve" xmlns="http://www.w3.org/2000/svg" xmlns:xlink="http://www.w3.org/1999/xlink"><g id="_x31_83_x2C__cloud_x2C__power_x2C__network_x2C__off"><g id="XMLID_12952_"><path d="M382.173,174.824c-0.209,0-0.417,0.008-0.624,0.016c-0.212,0.007-0.423,0.014-0.635,0.018    c-1.382,0.022-2.707-0.569-3.612-1.618c-0.902-1.049-1.293-2.446-1.063-3.812c0.846-5.047,1.274-10.125,1.274-15.093    c0-49.802-40.36-90.318-89.97-90.318c-34.455,0-65.365,19.281-80.668,50.318c-1.106,2.245-3.788,3.213-6.075,2.196    c-7.489-3.334-15.448-5.025-23.658-5.025c-32.217,0-58.427,26.314-58.427,58.659c0,0.295,0.011,0.587,0.021,0.879l0.018,0.587    c0.055,2.258-1.518,4.229-3.73,4.679c-34.416,6.993-59.395,37.695-59.395,73.001c0,35.083,21.797,66.782,51.917,75.653h13.323    c0.003-0.419,0.018-0.836,0.025-1.253c0.009-0.55,0.016-1.101,0.032-1.648c0.017-0.579,0.042-1.156,0.066-1.732    c0.023-0.54,0.044-1.08,0.073-1.618c0.031-0.581,0.071-1.16,0.111-1.74c0.035-0.53,0.069-1.061,0.111-1.59    c0.046-0.582,0.102-1.163,0.156-1.743c0.048-0.521,0.095-1.043,0.149-1.563c0.062-0.587,0.132-1.17,0.201-1.754    c0.061-0.509,0.119-1.02,0.186-1.527c0.077-0.589,0.162-1.176,0.248-1.763c0.072-0.498,0.141-0.998,0.219-1.495    c0.092-0.59,0.193-1.178,0.293-1.766c0.083-0.489,0.164-0.979,0.253-1.467c0.108-0.593,0.225-1.183,0.341-1.772    c0.093-0.478,0.185-0.954,0.284-1.43c0.124-0.597,0.257-1.19,0.39-1.784c0.103-0.464,0.204-0.93,0.312-1.392    c0.141-0.6,0.29-1.195,0.438-1.791c0.113-0.452,0.223-0.906,0.34-1.356c0.157-0.601,0.322-1.198,0.487-1.796    c0.122-0.441,0.241-0.883,0.367-1.322c0.172-0.6,0.354-1.196,0.535-1.793c0.13-0.432,0.258-0.865,0.394-1.295    c0.188-0.601,0.386-1.195,0.583-1.792c0.139-0.421,0.276-0.844,0.418-1.263c0.206-0.602,0.419-1.197,0.633-1.793    c0.146-0.41,0.29-0.821,0.441-1.229c0.221-0.602,0.453-1.197,0.683-1.795c0.154-0.396,0.304-0.797,0.461-1.192    c0.239-0.601,0.487-1.196,0.734-1.793c0.161-0.387,0.318-0.775,0.482-1.161c0.255-0.598,0.519-1.191,0.783-1.785    c0.167-0.377,0.332-0.756,0.502-1.132c0.271-0.596,0.551-1.185,0.83-1.774c0.174-0.369,0.346-0.74,0.523-1.106    c0.288-0.593,0.584-1.179,0.88-1.768c0.18-0.357,0.357-0.717,0.541-1.073c0.304-0.59,0.617-1.176,0.93-1.761    c0.186-0.348,0.368-0.696,0.556-1.042c0.321-0.588,0.652-1.171,0.982-1.754c0.189-0.336,0.376-0.673,0.569-1.006    c0.338-0.586,0.686-1.166,1.032-1.746c0.195-0.324,0.386-0.652,0.583-0.975c0.355-0.582,0.719-1.158,1.083-1.733    c0.199-0.315,0.395-0.633,0.597-0.946c0.372-0.577,0.752-1.147,1.132-1.719c0.203-0.305,0.403-0.612,0.608-0.916    c0.388-0.572,0.785-1.138,1.182-1.703c0.208-0.296,0.411-0.594,0.622-0.888c0.403-0.566,0.816-1.125,1.228-1.684    c0.212-0.287,0.42-0.577,0.635-0.862c0.419-0.559,0.848-1.111,1.276-1.664c0.216-0.278,0.428-0.559,0.646-0.835    c0.433-0.55,0.875-1.093,1.318-1.636c0.222-0.272,0.439-0.547,0.664-0.817c0.444-0.537,0.897-1.067,1.351-1.597    c0.23-0.269,0.457-0.542,0.689-0.809c0.459-0.528,0.926-1.049,1.393-1.569c0.233-0.26,0.463-0.524,0.699-0.782    c0.474-0.52,0.956-1.032,1.437-1.543c0.238-0.253,0.472-0.509,0.712-0.76c0.487-0.51,0.982-1.011,1.478-1.513    c0.242-0.246,0.48-0.494,0.724-0.737c0.5-0.5,1.009-0.991,1.518-1.482c0.247-0.238,0.49-0.48,0.739-0.716    c0.514-0.488,1.035-0.969,1.557-1.45c0.25-0.23,0.498-0.465,0.75-0.694c0.524-0.476,1.057-0.942,1.588-1.41    c0.258-0.227,0.513-0.457,0.772-0.681c0.538-0.466,1.084-0.922,1.63-1.379c0.259-0.217,0.515-0.438,0.776-0.653    c0.55-0.453,1.107-0.897,1.666-1.342c0.265-0.211,0.526-0.426,0.793-0.636c0.559-0.438,1.125-0.867,1.691-1.296    c0.272-0.207,0.541-0.417,0.814-0.622c0.57-0.426,1.146-0.841,1.722-1.257c0.277-0.2,0.551-0.404,0.83-0.602    c0.579-0.411,1.165-0.813,1.751-1.214c0.283-0.194,0.562-0.393,0.847-0.584c0.585-0.396,1.179-0.781,1.771-1.167    c0.291-0.189,0.579-0.384,0.872-0.571c0.593-0.38,1.192-0.75,1.792-1.12c0.298-0.184,0.593-0.374,0.893-0.556    c0.6-0.364,1.206-0.717,1.812-1.072c0.307-0.18,0.61-0.364,0.918-0.541c0.604-0.348,1.216-0.685,1.828-1.023    c0.314-0.174,0.626-0.353,0.942-0.525c0.611-0.332,1.229-0.653,1.846-0.975c0.322-0.168,0.641-0.341,0.964-0.507    c0.613-0.314,1.232-0.616,1.851-0.921c0.334-0.164,0.665-0.334,1.001-0.496c0.614-0.295,1.234-0.581,1.854-0.867    c0.345-0.16,0.688-0.325,1.035-0.482c0.625-0.282,1.255-0.553,1.886-0.826c0.346-0.15,0.689-0.305,1.037-0.453    c0.633-0.268,1.272-0.523,1.91-0.781c0.351-0.143,0.7-0.29,1.052-0.429c0.632-0.25,1.271-0.486,1.908-0.726    c0.364-0.137,0.725-0.28,1.09-0.414c0.627-0.23,1.26-0.447,1.892-0.668c0.381-0.133,0.759-0.271,1.141-0.401    c0.623-0.21,1.251-0.409,1.879-0.611c0.396-0.127,0.789-0.26,1.186-0.384c0.636-0.198,1.277-0.383,1.917-0.571    c0.393-0.116,0.783-0.237,1.177-0.349c0.644-0.183,1.294-0.354,1.942-0.527c0.396-0.106,0.789-0.218,1.186-0.32    c0.639-0.165,1.284-0.316,1.927-0.471c0.411-0.099,0.819-0.205,1.232-0.3c0.64-0.148,1.284-0.283,1.927-0.421    c0.42-0.09,0.837-0.187,1.258-0.273c0.634-0.13,1.273-0.247,1.911-0.368c0.436-0.082,0.868-0.171,1.306-0.25    c0.64-0.114,1.285-0.215,1.929-0.32c0.437-0.072,0.872-0.15,1.31-0.217c0.645-0.098,1.293-0.183,1.941-0.272    c0.443-0.061,0.883-0.129,1.328-0.186c0.627-0.08,1.258-0.146,1.888-0.217c0.468-0.053,0.935-0.112,1.404-0.16    c0.652-0.066,1.309-0.118,1.964-0.175c0.45-0.039,0.897-0.085,1.349-0.12c0.704-0.054,1.412-0.092,2.119-0.135    c0.406-0.024,0.811-0.056,1.219-0.077c0.806-0.041,1.616-0.066,2.426-0.093c0.312-0.01,0.621-0.027,0.932-0.035    c1.124-0.028,2.25-0.043,3.38-0.043s2.257,0.015,3.38,0.043c0.317,0.008,0.63,0.026,0.946,0.036    c0.805,0.026,1.611,0.052,2.413,0.092c0.413,0.021,0.825,0.054,1.237,0.078c0.7,0.042,1.402,0.081,2.1,0.134    c0.465,0.036,0.926,0.083,1.389,0.123c0.641,0.056,1.283,0.106,1.924,0.171c0.486,0.05,0.971,0.111,1.456,0.166    c0.611,0.069,1.226,0.133,1.835,0.211c0.461,0.058,0.916,0.128,1.375,0.192c0.631,0.087,1.266,0.169,1.895,0.266    c0.453,0.069,0.903,0.15,1.354,0.225c0.628,0.103,1.258,0.201,1.883,0.313c0.454,0.081,0.905,0.174,1.358,0.26    c0.619,0.117,1.24,0.23,1.857,0.357c0.44,0.09,0.877,0.191,1.315,0.286c0.624,0.134,1.249,0.264,1.869,0.408    c0.433,0.1,0.861,0.21,1.293,0.314c0.623,0.15,1.247,0.297,1.866,0.457c0.417,0.107,0.831,0.226,1.248,0.337    c0.626,0.168,1.255,0.333,1.878,0.51c0.421,0.12,0.838,0.25,1.258,0.373c0.612,0.181,1.227,0.358,1.835,0.547    c0.424,0.132,0.844,0.273,1.265,0.41c0.601,0.194,1.203,0.384,1.8,0.586c0.412,0.139,0.818,0.288,1.229,0.431    c0.602,0.211,1.204,0.417,1.802,0.636c0.398,0.146,0.792,0.301,1.188,0.451c0.604,0.228,1.21,0.453,1.811,0.689    c0.384,0.152,0.765,0.313,1.147,0.468c0.605,0.245,1.212,0.488,1.813,0.742c0.382,0.161,0.758,0.331,1.137,0.495    c0.598,0.259,1.195,0.516,1.787,0.783c0.379,0.171,0.753,0.351,1.128,0.525c0.589,0.272,1.177,0.542,1.76,0.822    c0.367,0.177,0.73,0.363,1.098,0.544c0.586,0.289,1.173,0.576,1.755,0.873c0.354,0.182,0.703,0.371,1.056,0.556    c0.586,0.306,1.173,0.611,1.753,0.926c0.35,0.189,0.694,0.387,1.042,0.58c0.577,0.32,1.155,0.638,1.729,0.967    c0.34,0.196,0.676,0.399,1.015,0.598c0.572,0.336,1.146,0.67,1.714,1.014c0.332,0.202,0.659,0.411,0.99,0.616    c0.566,0.351,1.135,0.7,1.695,1.06c0.325,0.208,0.645,0.422,0.967,0.633c0.561,0.366,1.122,0.73,1.676,1.104    c0.316,0.213,0.627,0.434,0.941,0.65c0.553,0.38,1.108,0.76,1.656,1.149c0.309,0.219,0.611,0.444,0.918,0.667    c0.547,0.395,1.095,0.789,1.635,1.193c0.302,0.225,0.598,0.457,0.897,0.685c0.537,0.408,1.076,0.816,1.606,1.232    c0.297,0.233,0.588,0.472,0.882,0.707c0.528,0.421,1.056,0.841,1.576,1.271c0.29,0.238,0.574,0.482,0.861,0.723    c0.518,0.435,1.035,0.867,1.546,1.309c0.286,0.247,0.566,0.5,0.851,0.749c0.505,0.444,1.01,0.888,1.509,1.34    c0.279,0.254,0.553,0.513,0.831,0.769c0.494,0.456,0.99,0.911,1.477,1.375c0.273,0.259,0.54,0.524,0.811,0.786    c0.484,0.469,0.969,0.937,1.446,1.412c0.268,0.267,0.528,0.54,0.794,0.808c0.472,0.479,0.944,0.956,1.408,1.442    c0.261,0.274,0.518,0.553,0.777,0.829c0.459,0.49,0.92,0.979,1.373,1.475c0.255,0.279,0.504,0.564,0.756,0.846    c0.447,0.5,0.896,0.999,1.337,1.506c0.251,0.289,0.497,0.583,0.745,0.875c0.434,0.507,0.867,1.014,1.292,1.528    c0.245,0.295,0.483,0.596,0.726,0.894c0.422,0.518,0.843,1.035,1.257,1.559c0.237,0.301,0.469,0.607,0.704,0.91    c0.408,0.528,0.817,1.056,1.219,1.59c0.231,0.308,0.456,0.62,0.685,0.93c0.396,0.537,0.791,1.073,1.179,1.616    c0.227,0.317,0.448,0.639,0.671,0.958c0.38,0.542,0.76,1.083,1.131,1.63c0.224,0.329,0.44,0.662,0.66,0.993    c0.363,0.545,0.728,1.091,1.083,1.643c0.217,0.336,0.427,0.677,0.64,1.015c0.35,0.553,0.699,1.104,1.04,1.663    c0.212,0.348,0.416,0.697,0.625,1.046c0.333,0.557,0.666,1.112,0.991,1.675c0.206,0.357,0.406,0.718,0.609,1.077    c0.316,0.56,0.634,1.118,0.942,1.684c0.201,0.368,0.396,0.741,0.594,1.112c0.3,0.562,0.601,1.123,0.894,1.689    c0.194,0.378,0.383,0.76,0.574,1.142c0.284,0.565,0.569,1.13,0.846,1.701c0.188,0.388,0.371,0.78,0.555,1.171    c0.269,0.567,0.538,1.135,0.799,1.707c0.182,0.399,0.356,0.802,0.534,1.202c0.252,0.571,0.506,1.14,0.752,1.716    c0.173,0.407,0.341,0.818,0.51,1.229c0.237,0.574,0.477,1.147,0.706,1.726c0.167,0.417,0.326,0.84,0.488,1.259    c0.221,0.574,0.442,1.148,0.657,1.727c0.159,0.432,0.311,0.866,0.467,1.301c0.203,0.572,0.409,1.145,0.606,1.721    c0.151,0.441,0.295,0.887,0.441,1.331c0.189,0.575,0.38,1.147,0.561,1.726c0.143,0.451,0.277,0.904,0.414,1.357    c0.173,0.576,0.349,1.15,0.515,1.729c0.134,0.465,0.26,0.932,0.389,1.398c0.156,0.571,0.314,1.143,0.465,1.717    c0.125,0.478,0.241,0.959,0.361,1.438c0.141,0.569,0.284,1.137,0.418,1.707c0.114,0.491,0.221,0.983,0.33,1.476    c0.127,0.566,0.253,1.132,0.371,1.701c0.105,0.501,0.201,1.006,0.3,1.51c0.111,0.564,0.223,1.128,0.326,1.694    c0.093,0.511,0.178,1.025,0.266,1.538c0.096,0.564,0.192,1.128,0.281,1.695c0.081,0.52,0.154,1.043,0.229,1.565    c0.081,0.563,0.163,1.125,0.237,1.69c0.07,0.533,0.131,1.068,0.194,1.604c0.065,0.559,0.133,1.115,0.192,1.675    c0.058,0.547,0.106,1.096,0.156,1.644c0.052,0.554,0.104,1.107,0.148,1.663c0.045,0.555,0.08,1.113,0.117,1.67    c0.038,0.553,0.076,1.104,0.105,1.659c0.031,0.566,0.053,1.135,0.077,1.704c0.022,0.547,0.047,1.094,0.063,1.644    c0.017,0.578,0.024,1.158,0.033,1.738c0.007,0.396,0.021,0.791,0.024,1.188h2.724c39.243-1.289,69.973-34.505,69.973-75.653    C456.371,208.239,423.086,174.824,382.173,174.824z M340.643,166.469c-0.26,0.043-0.518,0.064-0.771,0.064    c-2.237,0-4.212-1.616-4.591-3.895c-3.631-21.779-13.476-38.715-29.262-50.339c-11.873-8.741-22.876-11.075-22.985-11.097    c-2.517-0.517-4.146-2.974-3.635-5.492c0.511-2.518,2.955-4.151,5.474-3.645c0.518,0.104,12.807,2.643,26.291,12.451    c12.396,9.015,28.236,26.15,33.31,56.59C344.896,163.645,343.181,166.045,340.643,166.469z" id="XMLID_12953_"/><path d="M291.387,210.236c-0.944-0.32-1.895-0.63-2.85-0.927c-2.865-0.894-5.776-1.684-8.727-2.367    c-0.984-0.228-1.973-0.443-2.965-0.647c-2.978-0.611-5.994-1.113-9.046-1.501c-5.086-0.648-10.269-0.983-15.528-0.983    c-1.052,0-2.1,0.013-3.146,0.04c-64.825,1.647-117.252,54.075-118.9,118.9c-0.027,1.045-0.04,2.094-0.04,3.146    c0,1.102,0.023,2.198,0.052,3.293c0.014,0.144,0.025,0.288,0.025,0.436c0,0.036-0.01,0.068-0.011,0.105    c2.042,66.329,55.592,118.253,122.02,118.253c66.507,0,120.11-52.049,122.03-118.493c0.035-1.193,0.057-2.392,0.057-3.594    c0-1.052-0.014-2.101-0.04-3.146C372.99,270.473,338.636,226.257,291.387,210.236z M247.612,231.834c0-2.573,2.086-4.66,4.66-4.66    c2.574,0,4.66,2.086,4.66,4.66v102.614c0,2.574-2.086,4.66-4.66,4.66c-2.573,0-4.66-2.086-4.66-4.66V231.834z M252.272,413.598    c-48.358,0-87.7-39.343-87.7-87.701c0-30.564,15.528-58.443,41.539-74.575c2.186-1.357,5.06-0.684,6.416,1.504    c1.357,2.187,0.683,5.059-1.504,6.416c-23.25,14.421-37.131,39.339-37.131,66.655c0,43.22,35.162,78.381,78.381,78.381    c43.22,0,78.381-35.161,78.381-78.381c0-27.316-13.881-52.234-37.132-66.655c-2.188-1.356-2.859-4.229-1.504-6.416    c1.356-2.188,4.228-2.862,6.417-1.504c26.01,16.131,41.538,44.01,41.538,74.575C339.973,374.255,300.63,413.598,252.272,413.598z" id="XMLID_12956_"/></g></g><g id="Layer_1"/></svg>